<?xml version="1.0" encoding="UTF-8" standalone="no"?>
<svg
   xmlns:dc="http://purl.org/dc/elements/1.1/"
   xmlns:cc="http://creativecommons.org/ns#"
   xmlns:rdf="http://www.w3.org/1999/02/22-rdf-syntax-ns#"
   xmlns:svg="http://www.w3.org/2000/svg"
   xmlns="http://www.w3.org/2000/svg"
   xmlns:sodipodi="http://sodipodi.sourceforge.net/DTD/sodipodi-0.dtd"
   xmlns:inkscape="http://www.inkscape.org/namespaces/inkscape"
   inkscape:version="1.0 (4035a4f, 2020-05-01)"
   sodipodi:docname="control-plane.svg"
   version="1.1"
   viewBox="0 0 595.276 246.321"
   height="86.896mm"
   width="210mm"
   data-name="Layer 1"
   id="Layer_1">
  <metadata
     id="metadata591">
    <rdf:RDF>
      <cc:Work
         rdf:about="">
        <dc:format>image/svg+xml</dc:format>
        <dc:type
           rdf:resource="http://purl.org/dc/dcmitype/StillImage" />
        <dc:title></dc:title>
        <dc:subject>
          <rdf:Bag>
            <rdf:li>do280-arch</rdf:li>
          </rdf:Bag>
        </dc:subject>
      </cc:Work>
    </rdf:RDF>
  </metadata>
  <sodipodi:namedview
     inkscape:current-layer="Layer_1"
     inkscape:window-maximized="0"
     inkscape:window-y="25"
     inkscape:window-x="0"
     inkscape:cy="164.21292"
     inkscape:cx="396.85039"
     inkscape:zoom="0.63122024"
     showgrid="false"
     id="namedview589"
     inkscape:window-height="480"
     inkscape:window-width="987"
     inkscape:pageshadow="2"
     inkscape:pageopacity="0"
     guidetolerance="10"
     gridtolerance="10"
     objecttolerance="10"
     borderopacity="1"
     bordercolor="#666666"
     pagecolor="#ffffff" />
  <defs
     id="defs12">
    <style
       id="style10">
      .cls-1 {
        fill: #e8e8e8;
      }

      .cls-2 {
        fill: #fff;
      }

      .cls-3 {
        fill: #f7823b;
      }

      .cls-4 {
        fill: none;
        stroke: #000;
        stroke-miterlimit: 10;
      }

      .cls-5 {
        fill: #0165ca;
      }

      .cls-6 {
        fill: #969696;
      }
    </style>
  </defs>
  <rect
     id="rect14"
     height="190.567"
     width="558.668"
     y="19.407"
     x="19.751"
     class="cls-1" />
  <g
     id="g20">
    <rect
       id="rect16"
       height="17.826"
       width="118.632"
       y="55.091"
       x="239.769"
       class="cls-2" />
    <path
       id="path18"
       d="M357.9,55.591V72.417H240.269V55.591H357.9m1-1H239.269V73.417H358.9V54.591Z"
       class="cls-3" />
  </g>
  <g
     id="g26">
    <rect
       id="rect22"
       height="17.826"
       width="118.632"
       y="79.12"
       x="239.769"
       class="cls-2" />
    <path
       id="path24"
       d="M357.9,79.62V96.446H240.269V79.62H357.9m1-1H239.269V97.446H358.9V78.62Z"
       class="cls-3" />
  </g>
  <g
     id="g32">
    <rect
       id="rect28"
       height="17.826"
       width="118.632"
       y="103.148"
       x="239.769"
       class="cls-2" />
    <path
       id="path30"
       d="M357.9,103.649v16.825H240.269V103.649H357.9m1-1H239.269v18.825H358.9V102.649Z"
       class="cls-3" />
  </g>
  <g
     id="g38">
    <rect
       id="rect34"
       height="17.826"
       width="118.631"
       y="55.091"
       x="439.894"
       class="cls-2" />
    <path
       id="path36"
       d="M558.025,55.591V72.417H440.394V55.591H558.025m1-1H439.394V73.417H559.025V54.591Z"
       class="cls-3" />
  </g>
  <g
     id="g44">
    <line
       id="line40"
       y2="64.004"
       x2="233.783"
       y1="64.004"
       x1="158.302"
       class="cls-4" />
    <polygon
       id="polygon42"
       points="232.689 67.744 239.165 64.005 232.689 60.265 232.689 67.744" />
  </g>
  <g
     id="g50">
    <line
       id="line46"
       y2="64.004"
       x2="439.72"
       y1="64.004"
       x1="364.239"
       class="cls-4" />
    <polygon
       id="polygon48"
       points="365.333 67.744 358.857 64.005 365.333 60.265 365.333 67.744" />
  </g>
  <g
     id="g90">
    <path
       id="path52"
       d="M266.164,62.425a2.027,2.027,0,1,1-1.895,2.015A1.916,1.916,0,0,1,266.164,62.425Zm1.327,2.024a1.335,1.335,0,1,0-2.646,0,1.334,1.334,0,1,0,2.646,0Z" />
    <path
       id="path54"
       d="M269.093,62.49h.575v.559a1.542,1.542,0,0,1,1.264-.607,2.013,2.013,0,0,1-.032,4.006,1.586,1.586,0,0,1-1.224-.544v2.158h-.583Zm.583,1V65.4a1.372,1.372,0,0,0,1.112.544,1.5,1.5,0,0,0,0-2.99A1.332,1.332,0,0,0,269.676,63.489Z" />
    <path
       id="path56"
       d="M275.524,66.463a1.947,1.947,0,0,1-1.935-2.023,1.9,1.9,0,0,1,1.839-2.015,1.844,1.844,0,0,1,1.791,1.967v.176h-3.062a1.421,1.421,0,0,0,1.391,1.384,1.6,1.6,0,0,0,1.071-.4l.368.392A2.283,2.283,0,0,1,275.524,66.463Zm-1.352-2.31h2.471a1.288,1.288,0,0,0-1.223-1.224A1.3,1.3,0,0,0,274.172,64.153Z" />
    <path
       id="path58"
       d="M278.221,62.49h.583v.632a1.408,1.408,0,0,1,1.24-.7,1.358,1.358,0,0,1,1.415,1.44v2.526h-.584V64.033a1.011,1.011,0,0,0-1.047-1.119,1.152,1.152,0,0,0-1.024.6v2.878h-.583Z" />
    <path
       id="path60"
       d="M282.572,65.5a2.038,2.038,0,0,0,1.256.489c.567,0,.983-.3.983-.7,0-.32-.208-.488-.7-.583l-.639-.113c-.76-.135-1.1-.456-1.1-1.023,0-.672.584-1.144,1.407-1.144a2.525,2.525,0,0,1,1.488.489l-.288.407a2.069,2.069,0,0,0-1.224-.416c-.511,0-.847.24-.847.624,0,.32.168.471.672.559l.655.12c.784.144,1.136.472,1.136,1.048a1.366,1.366,0,0,1-1.519,1.207,2.226,2.226,0,0,1-1.584-.576Z" />
    <path
       id="path62"
       d="M286.252,60.674l.584-.12v2.568a1.408,1.408,0,0,1,1.24-.7,1.358,1.358,0,0,1,1.415,1.44v2.526h-.584V64.033a1.011,1.011,0,0,0-1.047-1.119,1.152,1.152,0,0,0-1.024.6v2.878h-.584Z" />
    <path
       id="path64"
       d="M290.54,61.106a.42.42,0,0,1,.84,0,.42.42,0,1,1-.84,0Zm.712,5.285h-.584v-3.9h.584Z" />
    <path
       id="path66"
       d="M292.948,62.49v-.856a1.071,1.071,0,0,1,1.167-1.2,1.652,1.652,0,0,1,.528.071v.529a1.579,1.579,0,0,0-.472-.073c-.447,0-.639.216-.639.68v.848h1.111v.479h-1.111v3.422h-.584V62.969h-.871V62.49Z" />
    <path
       id="path68"
       d="M295.956,62.969h-.808V62.49h.808V61.418l.583-.136V62.49h1.12v.479h-1.12V65.36c0,.416.161.584.568.584a1.4,1.4,0,0,0,.552-.105v.52a2.193,2.193,0,0,1-.68.1c-.671,0-1.023-.328-1.023-.951Z" />
    <path
       id="path70"
       d="M300.971,63.889v.5h-2.662v-.5Z" />
    <path
       id="path72"
       d="M301.852,65.272c0-.7.584-1.159,1.463-1.159a2.254,2.254,0,0,1,1.191.3V63.88a.877.877,0,0,0-1.007-.966,2.572,2.572,0,0,0-1.183.335L302.1,62.8a3.341,3.341,0,0,1,1.471-.376c.968,0,1.511.489,1.511,1.375v2.591h-.576v-.455a1.671,1.671,0,0,1-1.239.527A1.26,1.26,0,0,1,301.852,65.272Zm1.535.743a1.541,1.541,0,0,0,1.119-.447v-.752a2.053,2.053,0,0,0-1.1-.279c-.6,0-.992.287-.992.719C302.412,65.711,302.8,66.015,303.387,66.015Z" />
    <path
       id="path74"
       d="M306.268,62.49h.576v.559a1.539,1.539,0,0,1,1.263-.607,2.013,2.013,0,0,1-.032,4.006,1.584,1.584,0,0,1-1.223-.544v2.158h-.584Zm.584,1V65.4a1.37,1.37,0,0,0,1.111.544,1.5,1.5,0,0,0,0-2.99A1.33,1.33,0,0,0,306.852,63.489Z" />
    <path
       id="path76"
       d="M310.8,61.106a.42.42,0,0,1,.84,0,.42.42,0,1,1-.84,0Zm.712,5.285h-.584v-3.9h.584Z" />
    <path
       id="path78"
       d="M312.652,65.5a2.033,2.033,0,0,0,1.255.489c.567,0,.983-.3.983-.7,0-.32-.208-.488-.7-.583l-.64-.113c-.759-.135-1.1-.456-1.1-1.023,0-.672.583-1.144,1.407-1.144a2.524,2.524,0,0,1,1.487.489l-.288.407a2.068,2.068,0,0,0-1.223-.416c-.512,0-.848.24-.848.624,0,.32.168.471.672.559l.655.12c.784.144,1.136.472,1.136,1.048a1.366,1.366,0,0,1-1.52,1.207,2.225,2.225,0,0,1-1.583-.576Z" />
    <path
       id="path80"
       d="M318.13,66.463A1.948,1.948,0,0,1,316.2,64.44a1.9,1.9,0,0,1,1.839-2.015,1.844,1.844,0,0,1,1.791,1.967v.176h-3.063a1.423,1.423,0,0,0,1.392,1.384,1.6,1.6,0,0,0,1.071-.4l.368.392A2.284,2.284,0,0,1,318.13,66.463Zm-1.35-2.31h2.47a1.288,1.288,0,0,0-1.223-1.224A1.3,1.3,0,0,0,316.78,64.153Z" />
    <path
       id="path82"
       d="M320.828,62.49h.584v.791a1.165,1.165,0,0,1,1.086-.864,1.114,1.114,0,0,1,.369.056V63a1.466,1.466,0,0,0-.409-.072,1.11,1.11,0,0,0-1.046.792v2.67h-.584Z" />
    <path
       id="path84"
       d="M323.284,62.49h.631l1.263,3.174,1.248-3.174h.623l-1.607,3.9h-.56Z" />
    <path
       id="path86"
       d="M329.411,66.463a1.948,1.948,0,0,1-1.935-2.023,1.9,1.9,0,0,1,1.839-2.015,1.844,1.844,0,0,1,1.791,1.967v.176h-3.063a1.423,1.423,0,0,0,1.392,1.384,1.6,1.6,0,0,0,1.071-.4l.368.392A2.281,2.281,0,0,1,329.411,66.463Zm-1.351-2.31h2.471a1.29,1.29,0,0,0-1.224-1.224A1.3,1.3,0,0,0,328.06,64.153Z" />
    <path
       id="path88"
       d="M332.108,62.49h.584v.791a1.166,1.166,0,0,1,1.087-.864,1.112,1.112,0,0,1,.368.056V63a1.46,1.46,0,0,0-.408-.072,1.111,1.111,0,0,0-1.047.792v2.67h-.584Z" />
  </g>
  <g
     id="g126">
    <path
       id="path92"
       d="M164.476,56.532h.5v.49a1.348,1.348,0,0,1,1.106-.532A1.763,1.763,0,0,1,166.058,60a1.385,1.385,0,0,1-1.071-.476v1.891h-.511Zm.511.876v1.674a1.2,1.2,0,0,0,.973.476,1.315,1.315,0,0,0,0-2.62A1.165,1.165,0,0,0,164.987,57.408Z" />
    <path
       id="path94"
       d="M168.557,56.532h.511v.693a1.02,1.02,0,0,1,.952-.756.97.97,0,0,1,.322.049v.462a1.314,1.314,0,0,0-.357-.063.973.973,0,0,0-.917.694V59.95h-.511Z" />
    <path
       id="path96"
       d="M172.31,56.476a1.776,1.776,0,1,1-1.661,1.765A1.678,1.678,0,0,1,172.31,56.476Zm1.162,1.772a1.169,1.169,0,1,0-2.318,0,1.168,1.168,0,1,0,2.318,0Z" />
    <path
       id="path98"
       d="M175.458,58.192l-1.239-1.66h.609l.946,1.3.932-1.3h.581l-1.226,1.646,1.324,1.772h-.61l-1.022-1.394-1.016,1.394h-.581Z" />
    <path
       id="path100"
       d="M177.887,55.321a.368.368,0,0,1,.735,0,.368.368,0,1,1-.735,0Zm.624,4.629H178V56.532h.512Z" />
    <path
       id="path102"
       d="M181.1,60.013a1.706,1.706,0,0,1-1.695-1.772,1.664,1.664,0,0,1,1.611-1.765,1.614,1.614,0,0,1,1.569,1.723v.154H179.9a1.246,1.246,0,0,0,1.218,1.212,1.394,1.394,0,0,0,.939-.351l.322.344A2,2,0,0,1,181.1,60.013Zm-1.184-2.024h2.165a1.13,1.13,0,0,0-1.072-1.072A1.143,1.143,0,0,0,179.917,57.989Z" />
    <path
       id="path104"
       d="M185.98,59.5a1.346,1.346,0,0,1-1.092.5,1.763,1.763,0,0,1,.028-3.509,1.391,1.391,0,0,1,1.064.476V54.942l.512-.1V59.95h-.512Zm-.966.055a1.169,1.169,0,0,0,.966-.455V57.4a1.264,1.264,0,1,0-.966,2.149Z" />
    <path
       id="path106"
       d="M190.649,55.047h.644l1.913,4.9h-.582l-.581-1.541h-2.186l-.581,1.541h-.567Zm1.233,2.935-.932-2.451-.924,2.451Z" />
    <path
       id="path108"
       d="M193.889,55.047h2.024a1.454,1.454,0,1,1,0,2.9h-1.485v2h-.539Zm.539.477v1.961h1.422a.986.986,0,1,0,0-1.961Z" />
    <path
       id="path110"
       d="M198.453,55.047h.539v4.9h-.539Z" />
    <path
       id="path112"
       d="M201.764,56.532h.511v.693a1.021,1.021,0,0,1,.953-.756.97.97,0,0,1,.322.049v.462a1.314,1.314,0,0,0-.357-.063.974.974,0,0,0-.918.694V59.95h-.511Z" />
    <path
       id="path114"
       d="M205.551,60.013a1.706,1.706,0,0,1-1.695-1.772,1.664,1.664,0,0,1,1.611-1.765,1.614,1.614,0,0,1,1.569,1.723v.154h-2.682a1.246,1.246,0,0,0,1.218,1.212,1.392,1.392,0,0,0,.939-.351l.322.344A2,2,0,0,1,205.551,60.013Zm-1.183-2.024h2.164a1.13,1.13,0,0,0-1.072-1.072A1.142,1.142,0,0,0,204.368,57.989Z" />
    <path
       id="path116"
       d="M207.763,58.248a1.664,1.664,0,0,1,1.6-1.758,1.391,1.391,0,0,1,1.064.476v-.434h.511v4.882h-.511V59.5a1.346,1.346,0,0,1-1.092.5A1.649,1.649,0,0,1,207.763,58.248Zm1.7,1.3a1.17,1.17,0,0,0,.966-.455V57.4a1.264,1.264,0,1,0-.966,2.149Z" />
    <path
       id="path118"
       d="M212.488,58.591a.883.883,0,0,0,.91.988,1.015,1.015,0,0,0,.9-.519V56.532h.511V59.95H214.3V59.4a1.225,1.225,0,0,1-1.086.609,1.194,1.194,0,0,1-1.239-1.267V56.532h.518Z" />
    <path
       id="path120"
       d="M217.4,60.013a1.705,1.705,0,0,1-1.7-1.772,1.664,1.664,0,0,1,1.611-1.765A1.615,1.615,0,0,1,218.88,58.2v.154H216.2a1.246,1.246,0,0,0,1.218,1.212,1.4,1.4,0,0,0,.939-.351l.322.344A2,2,0,0,1,217.4,60.013Zm-1.184-2.024h2.165a1.13,1.13,0,0,0-1.072-1.072A1.143,1.143,0,0,0,216.211,57.989Z" />
    <path
       id="path122"
       d="M219.732,59.172a1.782,1.782,0,0,0,1.1.428c.5,0,.861-.26.861-.616,0-.28-.182-.428-.616-.512l-.56-.1c-.666-.119-.967-.4-.967-.9,0-.589.511-1,1.233-1a2.214,2.214,0,0,1,1.3.427l-.253.357a1.812,1.812,0,0,0-1.071-.364c-.448,0-.743.21-.743.547,0,.28.147.413.589.49l.574.1c.687.126,1,.413,1,.918a1.2,1.2,0,0,1-1.331,1.057,1.951,1.951,0,0,1-1.387-.5Z" />
    <path
       id="path124"
       d="M223.289,56.953h-.708v-.421h.708v-.939l.511-.119v1.058h.98v.421h-.98v2.093c0,.365.14.512.5.512a1.211,1.211,0,0,0,.483-.092v.456a1.919,1.919,0,0,1-.595.091c-.588,0-.9-.287-.9-.834Z" />
  </g>
  <g
     id="g156">
    <path
       id="path128"
       d="M373.685,56.476a1.776,1.776,0,1,1-1.66,1.765A1.678,1.678,0,0,1,373.685,56.476Zm1.162,1.772a1.169,1.169,0,1,0-2.318,0,1.168,1.168,0,1,0,2.318,0Z" />
    <path
       id="path130"
       d="M376.1,58.969c0-.609.512-1.015,1.282-1.015a1.978,1.978,0,0,1,1.043.266v-.47a.77.77,0,0,0-.882-.847,2.265,2.265,0,0,0-1.037.3l-.188-.393a2.94,2.94,0,0,1,1.288-.329c.848,0,1.324.427,1.324,1.2V59.95h-.5v-.4a1.464,1.464,0,0,1-1.085.463A1.1,1.1,0,0,1,376.1,58.969Zm1.345.652a1.349,1.349,0,0,0,.98-.392V58.57a1.8,1.8,0,0,0-.966-.245c-.525,0-.869.253-.869.631C376.588,59.355,376.932,59.621,377.443,59.621Z" />
    <path
       id="path132"
       d="M380.425,58.591a.883.883,0,0,0,.91.988,1.014,1.014,0,0,0,.9-.519V56.532h.512V59.95h-.512V59.4a1.223,1.223,0,0,1-1.085.609,1.2,1.2,0,0,1-1.24-1.267V56.532h.518Z" />
    <path
       id="path134"
       d="M384.2,56.953h-.707v-.421h.707v-.939l.51-.119v1.058h.981v.421h-.981v2.093c0,.365.141.512.5.512a1.211,1.211,0,0,0,.483-.092v.456a1.919,1.919,0,0,1-.6.091c-.589,0-.9-.287-.9-.834Z" />
    <path
       id="path136"
       d="M386.438,54.942l.511-.1v2.248a1.232,1.232,0,0,1,1.086-.609,1.19,1.19,0,0,1,1.239,1.261V59.95h-.511V57.884a.886.886,0,0,0-.918-.981,1.007,1.007,0,0,0-.9.525V59.95h-.511Z" />
    <path
       id="path138"
       d="M393.411,55.047h.644l1.912,4.9h-.581l-.582-1.541H392.62l-.582,1.541h-.567Zm1.232,2.935-.931-2.451-.924,2.451Z" />
    <path
       id="path140"
       d="M396.65,55.047h2.024a1.454,1.454,0,1,1,0,2.9H397.19v2h-.54Zm.54.477v1.961h1.421a.986.986,0,1,0,0-1.961Z" />
    <path
       id="path142"
       d="M401.214,55.047h.539v4.9h-.539Z" />
    <path
       id="path144"
       d="M404.343,58.969c0-.609.512-1.015,1.282-1.015a1.973,1.973,0,0,1,1.043.266v-.47a.769.769,0,0,0-.881-.847,2.265,2.265,0,0,0-1.038.3l-.188-.393a2.94,2.94,0,0,1,1.288-.329c.848,0,1.324.427,1.324,1.2V59.95h-.5v-.4a1.462,1.462,0,0,1-1.085.463A1.1,1.1,0,0,1,404.343,58.969Zm1.345.652a1.349,1.349,0,0,0,.98-.392V58.57a1.8,1.8,0,0,0-.965-.245c-.526,0-.87.253-.87.631C404.833,59.355,405.177,59.621,405.688,59.621Z" />
    <path
       id="path146"
       d="M410.722,59.144l.315.315a1.775,1.775,0,0,1-1.295.554,1.77,1.77,0,0,1,0-3.537,1.863,1.863,0,0,1,1.316.532l-.329.358a1.34,1.34,0,0,0-.967-.428,1.311,1.311,0,0,0,.007,2.612A1.257,1.257,0,0,0,410.722,59.144Z" />
    <path
       id="path148"
       d="M414.18,59.144l.315.315a1.775,1.775,0,0,1-1.3.554,1.77,1.77,0,0,1,0-3.537,1.863,1.863,0,0,1,1.316.532l-.329.358a1.34,1.34,0,0,0-.967-.428,1.311,1.311,0,0,0,.007,2.612A1.257,1.257,0,0,0,414.18,59.144Z" />
    <path
       id="path150"
       d="M416.664,60.013a1.706,1.706,0,0,1-1.695-1.772,1.664,1.664,0,0,1,1.612-1.765,1.614,1.614,0,0,1,1.568,1.723v.154h-2.683a1.247,1.247,0,0,0,1.219,1.212,1.39,1.39,0,0,0,.938-.351l.323.344A2,2,0,0,1,416.664,60.013Zm-1.183-2.024h2.164a1.13,1.13,0,0,0-1.072-1.072A1.142,1.142,0,0,0,415.481,57.989Z" />
    <path
       id="path152"
       d="M419,59.172a1.779,1.779,0,0,0,1.1.428c.5,0,.862-.26.862-.616,0-.28-.182-.428-.616-.512l-.56-.1c-.666-.119-.967-.4-.967-.9,0-.589.512-1,1.232-1a2.209,2.209,0,0,1,1.3.427l-.252.357a1.812,1.812,0,0,0-1.071-.364c-.449,0-.742.21-.742.547,0,.28.146.413.587.49l.575.1c.686.126,1,.413,1,.918a1.2,1.2,0,0,1-1.331,1.057,1.949,1.949,0,0,1-1.387-.5Z" />
    <path
       id="path154"
       d="M422.221,59.172a1.775,1.775,0,0,0,1.1.428c.5,0,.861-.26.861-.616,0-.28-.183-.428-.616-.512l-.561-.1c-.666-.119-.966-.4-.966-.9,0-.589.511-1,1.232-1a2.209,2.209,0,0,1,1.3.427l-.252.357a1.815,1.815,0,0,0-1.072-.364c-.448,0-.742.21-.742.547,0,.28.147.413.588.49l.574.1c.687.126.994.413.994.918a1.2,1.2,0,0,1-1.33,1.057,1.948,1.948,0,0,1-1.386-.5Z" />
  </g>
  <g
     id="g222">
    <path
       id="path158"
       d="M41.777,34.568a2.887,2.887,0,1,1,2.886-2.887A2.863,2.863,0,0,1,41.777,34.568Zm-.009-4.55a1.675,1.675,0,1,0,1.472,1.663A1.539,1.539,0,0,0,41.768,30.018Z" />
    <path
       id="path160"
       d="M45.53,30.354h1.28v.575a1.522,1.522,0,0,1,1.223-.6,1.966,1.966,0,0,1,1.823,2.095A1.989,1.989,0,0,1,47.937,34.5a1.441,1.441,0,0,1-1.112-.479V36.2h-1.3Zm1.3,1.383v1.376a1.062,1.062,0,0,0,.776.327,1.02,1.02,0,0,0,0-2.038A1,1,0,0,0,46.825,31.737Z" />
    <path
       id="path162"
       d="M52.713,34.56a2.133,2.133,0,0,1-2.175-2.135,2.07,2.07,0,0,1,2.079-2.143,2.028,2.028,0,0,1,2.031,2.191v.279H51.81a.988.988,0,0,0,.967.776,1.015,1.015,0,0,0,.815-.344l.856.712A2.4,2.4,0,0,1,52.713,34.56Zm-.9-2.543h1.639a.859.859,0,0,0-.84-.727A.818.818,0,0,0,51.81,32.017Z" />
    <path
       id="path164"
       d="M55.458,30.354h1.3v.672a1.52,1.52,0,0,1,1.3-.736A1.334,1.334,0,0,1,59.424,31.7V34.48h-1.3V32.073a.687.687,0,0,0-.687-.768.834.834,0,0,0-.688.344V34.48h-1.3Z" />
    <path
       id="path166"
       d="M60.753,32.7a3.071,3.071,0,0,0,1.815.743c.592,0,.952-.239.952-.583,0-.328-.192-.481-.736-.584l-1.191-.208a1.484,1.484,0,0,1-1.375-1.495c0-1.087.831-1.767,2.222-1.767a3.8,3.8,0,0,1,2.3.736l-.7,1a2.673,2.673,0,0,0-1.67-.616c-.544,0-.856.224-.856.528,0,.28.184.431.631.5l1.12.192c1.047.184,1.6.728,1.6,1.583,0,1.087-.928,1.831-2.39,1.831a3.967,3.967,0,0,1-2.423-.848Z" />
    <path
       id="path168"
       d="M65.642,28.763l1.3-.2v2.463a1.521,1.521,0,0,1,1.3-.736A1.334,1.334,0,0,1,69.608,31.7V34.48h-1.3V32.073a.687.687,0,0,0-.687-.768.834.834,0,0,0-.688.344V34.48h-1.3Z" />
    <path
       id="path170"
       d="M70.506,29a.73.73,0,0,1,.727-.728.738.738,0,0,1,.736.728.732.732,0,0,1-1.463,0Zm1.375,5.485h-1.3V30.354h1.3Z" />
    <path
       id="path172"
       d="M73.5,30.354V29.81c0-.983.584-1.519,1.647-1.519a2.948,2.948,0,0,1,.688.08v1.063a2.591,2.591,0,0,0-.5-.048c-.367,0-.543.145-.543.448v.52h1.039v1H74.793V34.48H73.5V31.353h-.855v-1Z" />
    <path
       id="path174"
       d="M77.193,31.353h-.8v-1h.8V29.21l1.3-.263v1.407h1.1v1h-1.1v1.6c0,.368.144.5.543.5a1.744,1.744,0,0,0,.528-.089v1.048a3.606,3.606,0,0,1-.888.128c-.975,0-1.479-.448-1.479-1.328Z" />
    <path
       id="path176"
       d="M39.026,39.954h1.295v.671a1.524,1.524,0,0,1,1.3-.735A1.334,1.334,0,0,1,42.992,41.3V44.08H41.7V41.673a.686.686,0,0,0-.688-.767.833.833,0,0,0-.688.343V44.08H39.026Z" />
    <path
       id="path178"
       d="M45.937,39.89a2.135,2.135,0,1,1-2.151,2.135A2.1,2.1,0,0,1,45.937,39.89Zm.9,2.135a.9.9,0,1,0-1.783,0,.9.9,0,1,0,1.783,0Z" />
    <path
       id="path180"
       d="M51.817,43.544a1.558,1.558,0,0,1-1.216.56,1.967,1.967,0,0,1-1.823-2.095A1.989,1.989,0,0,1,50.7,39.93a1.445,1.445,0,0,1,1.1.5V38.363l1.295-.2V44.08H51.817Zm-.784-.511a1.007,1.007,0,0,0,.768-.328V41.313a1.05,1.05,0,0,0-.768-.319,1.02,1.02,0,0,0,0,2.039Z" />
    <path
       id="path182"
       d="M56.1,44.16a2.133,2.133,0,0,1-2.175-2.135A2.07,2.07,0,0,1,56,39.882a2.028,2.028,0,0,1,2.032,2.191v.28H55.193a.989.989,0,0,0,.968.775,1.023,1.023,0,0,0,.815-.343l.855.712A2.4,2.4,0,0,1,56.1,44.16Zm-.9-2.543h1.639a.859.859,0,0,0-.839-.728A.82.82,0,0,0,55.193,41.617Z" />
    <path
       id="path184"
       d="M62.545,38.4l.687.791a3.582,3.582,0,0,0,0,5.9l-.687.791a4.5,4.5,0,0,1,0-7.483Z" />
    <path
       id="path186"
       d="M64.425,40.954h-.8v-1h.8V38.811l1.3-.265v1.408h1.1v1h-1.1v1.6c0,.368.144.5.543.5a1.705,1.705,0,0,0,.528-.088v1.048a3.6,3.6,0,0,1-.887.128c-.976,0-1.48-.448-1.48-1.328Z" />
    <path
       id="path188"
       d="M68.657,44.16l-1.519-4.206h1.431l.824,2.663.943-2.663h1.4l-1.855,4.6a1.7,1.7,0,0,1-1.806,1.288,2.629,2.629,0,0,1-.536-.064V44.7a2.83,2.83,0,0,0,.383.031.633.633,0,0,0,.672-.415Z" />
    <path
       id="path190"
       d="M72.3,39.954h1.279v.576a1.523,1.523,0,0,1,1.223-.6,1.966,1.966,0,0,1,1.823,2.095A1.989,1.989,0,0,1,74.705,44.1a1.437,1.437,0,0,1-1.112-.48V45.8H72.3Zm1.3,1.383v1.375a1.064,1.064,0,0,0,.776.329,1.021,1.021,0,0,0,0-2.04A1,1,0,0,0,73.593,41.337Z" />
    <path
       id="path192"
       d="M79.48,44.16a2.133,2.133,0,0,1-2.174-2.135,2.07,2.07,0,0,1,2.078-2.143,2.028,2.028,0,0,1,2.031,2.191v.28H78.577a.989.989,0,0,0,.967.775,1.024,1.024,0,0,0,.816-.343l.855.712A2.4,2.4,0,0,1,79.48,44.16Zm-.9-2.543h1.639a.86.86,0,0,0-.84-.728A.82.82,0,0,0,78.577,41.617Z" />
    <path
       id="path194"
       d="M85.768,40.954h-3.6v-.992h3.6Zm0,1.615h-3.6v-.991h3.6Z" />
    <path
       id="path196"
       d="M90.855,42.233l.9.855a2.865,2.865,0,1,1,.04-3.606l-.928.88a1.628,1.628,0,0,0-1.343-.743,1.655,1.655,0,1,0,1.327,2.614Z" />
    <path
       id="path198"
       d="M94.329,39.89a2.135,2.135,0,1,1-2.151,2.135A2.1,2.1,0,0,1,94.329,39.89Zm.9,2.135a.9.9,0,1,0-1.783,0,.9.9,0,1,0,1.783,0Z" />
    <path
       id="path200"
       d="M97.313,39.954h1.3v.671a1.525,1.525,0,0,1,1.3-.735,1.334,1.334,0,0,1,1.367,1.407V44.08h-1.3V41.673a.686.686,0,0,0-.688-.767.833.833,0,0,0-.688.343V44.08h-1.3Z" />
    <path
       id="path202"
       d="M102.681,40.954h-.8v-1h.8V38.811l1.3-.265v1.408h1.1v1h-1.1v1.6c0,.368.144.5.543.5a1.705,1.705,0,0,0,.528-.088v1.048a3.591,3.591,0,0,1-.887.128c-.975,0-1.479-.448-1.479-1.328Z" />
    <path
       id="path204"
       d="M105.8,39.954h1.3v.935c.264-.687.632-1.015,1.12-1.015a.878.878,0,0,1,.431.1v1.111a1.412,1.412,0,0,0-.607-.128,1.143,1.143,0,0,0-.944.512V44.08h-1.3Z" />
    <path
       id="path206"
       d="M111.184,39.89a2.135,2.135,0,1,1-2.151,2.135A2.1,2.1,0,0,1,111.184,39.89Zm.9,2.135a.9.9,0,1,0-1.784,0,.9.9,0,1,0,1.784,0Z" />
    <path
       id="path208"
       d="M115.464,44.08h-1.3V38.363l1.3-.2Z" />
    <path
       id="path210"
       d="M118.312,38.483h2.735a1.828,1.828,0,1,1,0,3.645h-1.359V44.08h-1.376Zm1.376,1.136v1.415H120.8c.56,0,.832-.3.832-.712s-.272-.7-.824-.7Z" />
    <path
       id="path212"
       d="M125.168,44.08h-1.3V38.363l1.3-.2Z" />
    <path
       id="path214"
       d="M125.985,42.9c0-.759.592-1.2,1.607-1.2a2.687,2.687,0,0,1,.96.192v-.336c0-.4-.264-.6-.816-.6a3.052,3.052,0,0,0-1.159.288l-.448-.9a4.579,4.579,0,0,1,1.895-.447c1.143,0,1.807.568,1.807,1.551V44.08h-1.279v-.36a1.644,1.644,0,0,1-1.144.424A1.284,1.284,0,0,1,125.985,42.9Zm1.823.393a1.418,1.418,0,0,0,.744-.208v-.529a3.153,3.153,0,0,0-.712-.088c-.424,0-.664.145-.664.409S127.408,43.289,127.808,43.289Z" />
    <path
       id="path216"
       d="M130.809,39.954h1.3v.671a1.525,1.525,0,0,1,1.3-.735,1.334,1.334,0,0,1,1.367,1.407V44.08h-1.3V41.673a.686.686,0,0,0-.687-.767.833.833,0,0,0-.688.343V44.08h-1.3Z" />
    <path
       id="path218"
       d="M137.744,44.16a2.133,2.133,0,0,1-2.175-2.135,2.07,2.07,0,0,1,2.079-2.143,2.028,2.028,0,0,1,2.031,2.191v.28H136.84a.989.989,0,0,0,.968.775,1.023,1.023,0,0,0,.815-.343l.855.712A2.4,2.4,0,0,1,137.744,44.16Zm-.9-2.543h1.639a.859.859,0,0,0-.839-.728A.82.82,0,0,0,136.84,41.617Z" />
    <path
       id="path220"
       d="M140.936,45.878l-.688-.791a3.581,3.581,0,0,0,0-5.9l.688-.791a4.5,4.5,0,0,1,0,7.483Z" />
  </g>
  <g
     id="g254">
    <path
       id="path224"
       d="M471.136,62.425a2.027,2.027,0,1,1-1.894,2.015A1.915,1.915,0,0,1,471.136,62.425Zm1.327,2.024a1.335,1.335,0,1,0-2.646,0,1.334,1.334,0,1,0,2.646,0Z" />
    <path
       id="path226"
       d="M474.065,62.49h.576v.559a1.539,1.539,0,0,1,1.263-.607,2.013,2.013,0,0,1-.032,4.006,1.584,1.584,0,0,1-1.223-.544v2.158h-.584Zm.584,1V65.4a1.37,1.37,0,0,0,1.111.544,1.5,1.5,0,0,0,0-2.99A1.33,1.33,0,0,0,474.649,63.489Z" />
    <path
       id="path228"
       d="M480.5,66.463a1.948,1.948,0,0,1-1.935-2.023,1.9,1.9,0,0,1,1.839-2.015,1.844,1.844,0,0,1,1.791,1.967v.176h-3.063a1.423,1.423,0,0,0,1.392,1.384,1.6,1.6,0,0,0,1.071-.4l.368.392A2.283,2.283,0,0,1,480.5,66.463Zm-1.351-2.31h2.471a1.289,1.289,0,0,0-1.224-1.224A1.3,1.3,0,0,0,479.145,64.153Z" />
    <path
       id="path230"
       d="M483.193,62.49h.584v.632a1.407,1.407,0,0,1,1.239-.7,1.358,1.358,0,0,1,1.415,1.44v2.526h-.584V64.033a1.01,1.01,0,0,0-1.047-1.119,1.15,1.15,0,0,0-1.023.6v2.878h-.584Z" />
    <path
       id="path232"
       d="M487.545,65.5a2.033,2.033,0,0,0,1.255.489c.568,0,.984-.3.984-.7,0-.32-.208-.488-.7-.583l-.64-.113c-.76-.135-1.1-.456-1.1-1.023,0-.672.583-1.144,1.408-1.144a2.524,2.524,0,0,1,1.487.489l-.288.407a2.071,2.071,0,0,0-1.224-.416c-.512,0-.848.24-.848.624,0,.32.168.471.672.559l.656.12c.784.144,1.135.472,1.135,1.048a1.365,1.365,0,0,1-1.519,1.207,2.223,2.223,0,0,1-1.583-.576Z" />
    <path
       id="path234"
       d="M491.225,60.674l.584-.12v2.568a1.407,1.407,0,0,1,1.239-.7,1.358,1.358,0,0,1,1.415,1.44v2.526h-.584V64.033a1.01,1.01,0,0,0-1.047-1.119,1.15,1.15,0,0,0-1.023.6v2.878h-.584Z" />
    <path
       id="path236"
       d="M495.513,61.106a.42.42,0,0,1,.84,0,.42.42,0,1,1-.84,0Zm.712,5.285h-.584v-3.9h.584Z" />
    <path
       id="path238"
       d="M497.921,62.49v-.856a1.07,1.07,0,0,1,1.167-1.2,1.652,1.652,0,0,1,.528.071v.529a1.574,1.574,0,0,0-.472-.073c-.447,0-.64.216-.64.68v.848h1.112v.479H498.5v3.422h-.583V62.969h-.872V62.49Z" />
    <path
       id="path240"
       d="M500.929,62.969h-.807V62.49h.807V61.418l.584-.136V62.49h1.119v.479h-1.119V65.36c0,.416.159.584.568.584a1.4,1.4,0,0,0,.551-.105v.52a2.191,2.191,0,0,1-.679.1c-.672,0-1.024-.328-1.024-.951Z" />
    <path
       id="path242"
       d="M505.944,63.889v.5h-2.663v-.5Z" />
    <path
       id="path244"
       d="M506.889,63.593c0-1.7.9-2.879,2.183-2.879s2.182,1.184,2.182,2.879-.887,2.878-2.182,2.878S506.889,65.288,506.889,63.593Zm3.781,0c0-1.439-.631-2.359-1.6-2.359s-1.6.928-1.6,2.359.632,2.359,1.6,2.359S510.67,65.032,510.67,63.593Z" />
    <path
       id="path246"
       d="M513.968,65.272c0-.7.584-1.159,1.464-1.159a2.253,2.253,0,0,1,1.19.3V63.88a.877.877,0,0,0-1.006-.966,2.572,2.572,0,0,0-1.184.335l-.216-.448a3.341,3.341,0,0,1,1.472-.376c.967,0,1.511.489,1.511,1.375v2.591h-.577v-.455a1.67,1.67,0,0,1-1.239.527A1.26,1.26,0,0,1,513.968,65.272Zm1.535.743a1.539,1.539,0,0,0,1.119-.447v-.752a2.053,2.053,0,0,0-1.1-.279c-.6,0-.992.287-.992.719C514.528,65.711,514.92,66.015,515.5,66.015Z" />
    <path
       id="path248"
       d="M518.912,64.84a1.008,1.008,0,0,0,1.04,1.127,1.159,1.159,0,0,0,1.023-.592V62.49h.583v3.9h-.583v-.632a1.4,1.4,0,0,1-1.239.7,1.364,1.364,0,0,1-1.415-1.448V62.49h.591Z" />
    <path
       id="path250"
       d="M523.224,62.969h-.808V62.49h.808V61.418l.584-.136V62.49h1.119v.479h-1.119V65.36c0,.416.159.584.567.584a1.4,1.4,0,0,0,.552-.105v.52a2.193,2.193,0,0,1-.68.1c-.671,0-1.023-.328-1.023-.951Z" />
    <path
       id="path252"
       d="M525.785,60.674l.584-.12v2.568a1.4,1.4,0,0,1,1.239-.7,1.358,1.358,0,0,1,1.415,1.44v2.526h-.584V64.033a1.01,1.01,0,0,0-1.047-1.119,1.149,1.149,0,0,0-1.023.6v2.878h-.584Z" />
  </g>
  <g
     id="g312">
    <path
       id="path256"
       d="M248.069,86.491a2.027,2.027,0,1,1-1.895,2.014A1.915,1.915,0,0,1,248.069,86.491Zm1.327,2.023a1.335,1.335,0,1,0-2.647,0,1.334,1.334,0,1,0,2.647,0Z" />
    <path
       id="path258"
       d="M251,86.555h.576v.56a1.54,1.54,0,0,1,1.263-.608,2.013,2.013,0,0,1-.031,4.006,1.583,1.583,0,0,1-1.224-.544v2.158H251Zm.584,1v1.911a1.372,1.372,0,0,0,1.112.544,1.5,1.5,0,0,0,0-2.99A1.332,1.332,0,0,0,251.581,87.554Z" />
    <path
       id="path260"
       d="M257.429,90.529a1.948,1.948,0,0,1-1.935-2.024,1.9,1.9,0,0,1,1.838-2.014,1.843,1.843,0,0,1,1.791,1.967v.175h-3.062a1.423,1.423,0,0,0,1.392,1.384,1.6,1.6,0,0,0,1.071-.4l.368.391A2.279,2.279,0,0,1,257.429,90.529Zm-1.352-2.311h2.471A1.288,1.288,0,0,0,257.325,87,1.3,1.3,0,0,0,256.077,88.218Z" />
    <path
       id="path262"
       d="M260.125,86.555h.584v.632a1.407,1.407,0,0,1,1.24-.7,1.358,1.358,0,0,1,1.415,1.439v2.527h-.584V88.1a1.011,1.011,0,0,0-1.047-1.119,1.151,1.151,0,0,0-1.024.6v2.878h-.584Z" />
    <path
       id="path264"
       d="M264.477,89.569a2.036,2.036,0,0,0,1.256.488c.568,0,.983-.3.983-.7,0-.319-.208-.487-.7-.583l-.64-.112c-.759-.136-1.1-.456-1.1-1.024,0-.672.584-1.143,1.408-1.143a2.523,2.523,0,0,1,1.487.488l-.288.407a2.068,2.068,0,0,0-1.223-.416c-.512,0-.848.24-.848.624,0,.321.168.472.672.56l.656.12c.783.143,1.135.472,1.135,1.048a1.367,1.367,0,0,1-1.519,1.207,2.226,2.226,0,0,1-1.584-.576Z" />
    <path
       id="path266"
       d="M268.157,84.74l.584-.12v2.567a1.405,1.405,0,0,1,1.239-.7A1.358,1.358,0,0,1,271.4,87.93v2.527h-.583V88.1a1.012,1.012,0,0,0-1.048-1.119,1.149,1.149,0,0,0-1.023.6v2.878h-.584Z" />
    <path
       id="path268"
       d="M272.445,85.171a.42.42,0,0,1,.84,0,.42.42,0,1,1-.84,0Zm.712,5.286h-.584v-3.9h.584Z" />
    <path
       id="path270"
       d="M274.852,86.555V85.7a1.071,1.071,0,0,1,1.168-1.2,1.649,1.649,0,0,1,.528.072V85.1a1.578,1.578,0,0,0-.472-.072c-.448,0-.64.216-.64.68v.847h1.112v.48h-1.112v3.422h-.584V87.035h-.871v-.48Z" />
    <path
       id="path272"
       d="M277.861,87.035h-.808v-.48h.808V85.484l.583-.137v1.208h1.12v.48h-1.12v2.39c0,.416.16.584.568.584a1.4,1.4,0,0,0,.552-.1v.519a2.165,2.165,0,0,1-.68.1c-.672,0-1.023-.328-1.023-.951Z" />
    <path
       id="path274"
       d="M282.875,87.955v.5h-2.662v-.5Z" />
    <path
       id="path276"
       d="M286.915,89.538l.36.359a2.032,2.032,0,0,1-1.479.632,2.021,2.021,0,0,1,0-4.038,2.126,2.126,0,0,1,1.5.607l-.376.408a1.535,1.535,0,0,0-1.1-.487A1.5,1.5,0,0,0,285.828,90,1.439,1.439,0,0,0,286.915,89.538Z" />
    <path
       id="path278"
       d="M289.716,86.491a2.027,2.027,0,1,1-1.895,2.014A1.915,1.915,0,0,1,289.716,86.491Zm1.327,2.023a1.335,1.335,0,1,0-2.647,0,1.334,1.334,0,1,0,2.647,0Z" />
    <path
       id="path280"
       d="M292.644,86.555h.584v.632a1.407,1.407,0,0,1,1.24-.7,1.358,1.358,0,0,1,1.415,1.439v2.527H295.3V88.1a1.012,1.012,0,0,0-1.048-1.119,1.15,1.15,0,0,0-1.023.6v2.878h-.584Z" />
    <path
       id="path282"
       d="M297.4,87.035H296.6v-.48h.807V85.484l.584-.137v1.208h1.119v.48h-1.119v2.39c0,.416.16.584.568.584a1.4,1.4,0,0,0,.551-.1v.519a2.159,2.159,0,0,1-.679.1c-.672,0-1.024-.328-1.024-.951Z" />
    <path
       id="path284"
       d="M299.964,86.555h.584v.791a1.166,1.166,0,0,1,1.087-.863,1.108,1.108,0,0,1,.368.056v.528A1.46,1.46,0,0,0,301.6,87a1.113,1.113,0,0,0-1.047.792v2.67h-.584Z" />
    <path
       id="path286"
       d="M304.251,86.491a2.027,2.027,0,1,1-1.894,2.014A1.915,1.915,0,0,1,304.251,86.491Zm1.328,2.023a1.335,1.335,0,1,0-2.647,0,1.334,1.334,0,1,0,2.647,0Z" />
    <path
       id="path288"
       d="M307.764,90.457h-.584V84.74l.584-.12Z" />
    <path
       id="path290"
       d="M309.548,90.457h-.584V84.74l.584-.12Z" />
    <path
       id="path292"
       d="M312.507,90.529a1.948,1.948,0,0,1-1.934-2.024,1.9,1.9,0,0,1,1.839-2.014,1.843,1.843,0,0,1,1.791,1.967v.175H311.14a1.423,1.423,0,0,0,1.392,1.384,1.6,1.6,0,0,0,1.071-.4l.368.391A2.279,2.279,0,0,1,312.507,90.529Zm-1.35-2.311h2.47A1.288,1.288,0,0,0,312.4,87,1.3,1.3,0,0,0,311.157,88.218Z" />
    <path
       id="path294"
       d="M315.205,86.555h.584v.791a1.164,1.164,0,0,1,1.086-.863,1.118,1.118,0,0,1,.369.056v.528a1.466,1.466,0,0,0-.409-.072,1.11,1.11,0,0,0-1.046.792v2.67h-.584Z" />
    <path
       id="path296"
       d="M320.411,87.955v.5h-2.664v-.5Z" />
    <path
       id="path298"
       d="M321.5,86.555h.584v.608a1.335,1.335,0,0,1,1.16-.672,1.283,1.283,0,0,1,1.2.759,1.442,1.442,0,0,1,1.3-.759,1.328,1.328,0,0,1,1.327,1.447v2.519h-.584V88.083c0-.68-.368-1.1-.959-1.1a1.083,1.083,0,0,0-.976.615,1.625,1.625,0,0,1,.031.344v2.519H324V88.083a.97.97,0,0,0-.967-1.1,1.069,1.069,0,0,0-.952.575v2.9H321.5Z" />
    <path
       id="path300"
       d="M328.052,89.337c0-.7.584-1.159,1.464-1.159a2.253,2.253,0,0,1,1.19.3v-.536a.877.877,0,0,0-1.006-.967,2.575,2.575,0,0,0-1.184.336l-.216-.448a3.341,3.341,0,0,1,1.472-.376c.967,0,1.511.488,1.511,1.375v2.591h-.577V90a1.671,1.671,0,0,1-1.239.528A1.26,1.26,0,0,1,328.052,89.337Zm1.535.744a1.54,1.54,0,0,0,1.119-.448v-.752a2.062,2.062,0,0,0-1.1-.279c-.6,0-.992.287-.992.72C328.612,89.777,329,90.081,329.587,90.081Z" />
    <path
       id="path302"
       d="M332.468,86.555h.584v.632a1.406,1.406,0,0,1,1.239-.7,1.358,1.358,0,0,1,1.415,1.439v2.527h-.584V88.1a1.011,1.011,0,0,0-1.046-1.119,1.151,1.151,0,0,0-1.024.6v2.878h-.584Z" />
    <path
       id="path304"
       d="M336.675,89.337c0-.7.584-1.159,1.464-1.159a2.259,2.259,0,0,1,1.191.3v-.536a.878.878,0,0,0-1.007-.967,2.575,2.575,0,0,0-1.184.336l-.216-.448a3.341,3.341,0,0,1,1.472-.376c.967,0,1.511.488,1.511,1.375v2.591h-.576V90a1.674,1.674,0,0,1-1.24.528A1.26,1.26,0,0,1,336.675,89.337Zm1.535.744a1.544,1.544,0,0,0,1.12-.448v-.752a2.068,2.068,0,0,0-1.1-.279c-.6,0-.992.287-.992.72C337.235,89.777,337.627,90.081,338.21,90.081Z" />
    <path
       id="path306"
       d="M340.915,88.505a1.9,1.9,0,0,1,1.832-2,1.575,1.575,0,0,1,1.223.552v-.5h.575v4.1c0,.967-.584,1.5-1.647,1.5a3.13,3.13,0,0,1-1.519-.408l.248-.448a2.627,2.627,0,0,0,1.247.361c.712,0,1.087-.345,1.087-1v-.736a1.536,1.536,0,0,1-1.247.575A1.883,1.883,0,0,1,340.915,88.505Zm1.943,1.5a1.34,1.34,0,0,0,1.1-.528V87.546a1.443,1.443,0,1,0-1.1,2.455Z" />
    <path
       id="path308"
       d="M347.506,90.529a1.948,1.948,0,0,1-1.934-2.024,1.9,1.9,0,0,1,1.839-2.014,1.843,1.843,0,0,1,1.791,1.967v.175h-3.063a1.423,1.423,0,0,0,1.392,1.384,1.6,1.6,0,0,0,1.071-.4l.368.391A2.279,2.279,0,0,1,347.506,90.529Zm-1.35-2.311h2.47A1.288,1.288,0,0,0,347.4,87,1.3,1.3,0,0,0,346.156,88.218Z" />
    <path
       id="path310"
       d="M350.2,86.555h.584v.791a1.164,1.164,0,0,1,1.086-.863,1.118,1.118,0,0,1,.369.056v.528a1.466,1.466,0,0,0-.409-.072,1.11,1.11,0,0,0-1.046.792v2.67H350.2Z" />
  </g>
  <g
     id="g328">
    <path
       id="path314"
       d="M288.4,113.566l.36.36a2.027,2.027,0,0,1-1.479.631,2.021,2.021,0,0,1,0-4.037,2.132,2.132,0,0,1,1.5.607l-.376.409a1.531,1.531,0,0,0-1.1-.489,1.5,1.5,0,0,0,.008,2.983A1.436,1.436,0,0,0,288.4,113.566Z" />
    <path
       id="path316"
       d="M291.2,110.52a2.027,2.027,0,1,1-1.9,2.015A1.915,1.915,0,0,1,291.2,110.52Zm1.327,2.022a1.335,1.335,0,1,0-2.646,0,1.334,1.334,0,1,0,2.646,0Z" />
    <path
       id="path318"
       d="M294.124,110.583h.584v.792a1.166,1.166,0,0,1,1.087-.863,1.114,1.114,0,0,1,.369.056v.527a1.458,1.458,0,0,0-.408-.071,1.112,1.112,0,0,0-1.048.791v2.671h-.584Z" />
    <path
       id="path320"
       d="M298.452,114.557a1.947,1.947,0,0,1-1.935-2.022,1.9,1.9,0,0,1,1.839-2.015,1.844,1.844,0,0,1,1.791,1.967v.176h-3.063a1.422,1.422,0,0,0,1.392,1.382,1.59,1.59,0,0,0,1.071-.4l.368.392A2.281,2.281,0,0,1,298.452,114.557Zm-1.351-2.31h2.47a1.287,1.287,0,0,0-1.223-1.223A1.3,1.3,0,0,0,297.1,112.247Z" />
    <path
       id="path322"
       d="M304.027,113.966a1.54,1.54,0,0,1-1.247.575,2.012,2.012,0,0,1,.032-4,1.59,1.59,0,0,1,1.215.544v-2.311l.584-.12v5.837h-.584Zm-1.1.064a1.335,1.335,0,0,0,1.1-.52v-1.935a1.444,1.444,0,1,0-1.1,2.455Z" />
    <path
       id="path324"
       d="M305.813,110.583h.584v.632a1.405,1.405,0,0,1,1.239-.7,1.357,1.357,0,0,1,1.415,1.438v2.528h-.584v-2.36a1.011,1.011,0,0,0-1.047-1.119,1.149,1.149,0,0,0-1.023.6v2.879h-.584Z" />
    <path
       id="path326"
       d="M310.164,113.6a2.029,2.029,0,0,0,1.255.487c.568,0,.984-.295.984-.7,0-.32-.208-.488-.7-.584l-.64-.111c-.76-.137-1.1-.456-1.1-1.023,0-.672.583-1.144,1.408-1.144a2.522,2.522,0,0,1,1.487.487l-.288.409a2.065,2.065,0,0,0-1.224-.417c-.511,0-.847.241-.847.625,0,.319.168.471.672.559l.655.12c.784.144,1.136.472,1.136,1.047a1.366,1.366,0,0,1-1.52,1.207,2.223,2.223,0,0,1-1.583-.575Z" />
  </g>
  <g
     id="g334">
    <rect
       id="rect330"
       height="17.826"
       width="118.631"
       y="55.091"
       x="39.023"
       class="cls-2" />
    <path
       id="path332"
       d="M157.154,55.591V72.417H39.523V55.591H157.154m1-1H38.523V73.417H158.154V54.591Z"
       class="cls-5" />
  </g>
  <g
     id="g340">
    <rect
       id="rect336"
       height="17.826"
       width="118.631"
       y="79.12"
       x="39.023"
       class="cls-2" />
    <path
       id="path338"
       d="M157.154,79.62V96.446H39.523V79.62H157.154m1-1H38.523V97.446H158.154V78.62Z"
       class="cls-5" />
  </g>
  <g
     id="g346">
    <rect
       id="rect342"
       height="17.826"
       width="118.631"
       y="103.148"
       x="39.023"
       class="cls-2" />
    <path
       id="path344"
       d="M157.154,103.649v16.825H39.523V103.649H157.154m1-1H38.523v18.825H158.154V102.649Z"
       class="cls-5" />
  </g>
  <g
     id="g352">
    <rect
       id="rect348"
       height="17.826"
       width="118.631"
       y="127.177"
       x="39.023"
       class="cls-2" />
    <path
       id="path350"
       d="M157.154,127.677V144.5H39.523V127.677H157.154m1-1H38.523V145.5H158.154V126.677Z"
       class="cls-5" />
  </g>
  <g
     id="g358">
    <rect
       id="rect354"
       height="17.826"
       width="118.631"
       y="151.206"
       x="39.023"
       class="cls-2" />
    <path
       id="path356"
       d="M157.154,151.706v16.825H39.523V151.706H157.154m1-1H38.523v18.825H158.154V150.706Z"
       class="cls-6" />
  </g>
  <g
     id="g364">
    <rect
       id="rect360"
       height="17.825"
       width="118.631"
       y="175.234"
       x="39.023"
       class="cls-2" />
    <path
       id="path362"
       d="M157.154,175.734V192.56H39.523V175.734H157.154m1-1H38.523V193.56H158.154V174.734Z"
       class="cls-6" />
  </g>
  <g
     id="g394">
    <path
       id="path366"
       d="M72.01,60.674l.584-.12v3.687l1.855-1.751h.7l-1.984,1.854,2.072,2.047h-.768l-1.879-1.862v1.862H72.01Z" />
    <path
       id="path368"
       d="M76.37,64.84a1.008,1.008,0,0,0,1.04,1.127,1.159,1.159,0,0,0,1.023-.592V62.49h.584v3.9h-.584v-.632a1.4,1.4,0,0,1-1.24.7,1.365,1.365,0,0,1-1.415-1.448V62.49h.592Z" />
    <path
       id="path370"
       d="M82.025,66.448a1.578,1.578,0,0,1-1.231-.569v.512h-.576V60.674l.584-.12v2.471a1.575,1.575,0,0,1,1.255-.583,2.013,2.013,0,0,1-.032,4.006ZM80.8,63.489V65.4a1.372,1.372,0,0,0,1.112.544,1.5,1.5,0,0,0,0-2.99A1.332,1.332,0,0,0,80.8,63.489Z" />
    <path
       id="path372"
       d="M86.649,66.463a1.948,1.948,0,0,1-1.935-2.023,1.9,1.9,0,0,1,1.839-2.015,1.843,1.843,0,0,1,1.791,1.967v.176H85.282a1.422,1.422,0,0,0,1.391,1.384,1.6,1.6,0,0,0,1.072-.4l.367.392A2.281,2.281,0,0,1,86.649,66.463ZM85.3,64.153h2.47a1.288,1.288,0,0,0-1.223-1.224A1.3,1.3,0,0,0,85.3,64.153Z" />
    <path
       id="path374"
       d="M91.913,63.889v.5H89.25v-.5Z" />
    <path
       id="path376"
       d="M92.794,65.272c0-.7.584-1.159,1.463-1.159a2.26,2.26,0,0,1,1.192.3V63.88a.878.878,0,0,0-1.008-.966,2.568,2.568,0,0,0-1.183.335l-.216-.448a3.341,3.341,0,0,1,1.471-.376c.967,0,1.511.489,1.511,1.375v2.591h-.575v-.455a1.675,1.675,0,0,1-1.24.527A1.26,1.26,0,0,1,92.794,65.272Zm1.535.743a1.544,1.544,0,0,0,1.12-.447v-.752a2.06,2.06,0,0,0-1.1-.279c-.6,0-.991.287-.991.719C93.354,65.711,93.746,66.015,94.329,66.015Z" />
    <path
       id="path378"
       d="M97.209,62.49h.576v.559a1.542,1.542,0,0,1,1.263-.607,2.013,2.013,0,0,1-.031,4.006,1.586,1.586,0,0,1-1.224-.544v2.158h-.584Zm.584,1V65.4a1.372,1.372,0,0,0,1.112.544,1.5,1.5,0,0,0,0-2.99A1.332,1.332,0,0,0,97.793,63.489Z" />
    <path
       id="path380"
       d="M101.746,61.106a.42.42,0,0,1,.839,0,.42.42,0,1,1-.839,0Zm.711,5.285h-.584v-3.9h.584Z" />
    <path
       id="path382"
       d="M103.594,65.5a2.035,2.035,0,0,0,1.255.489c.568,0,.983-.3.983-.7,0-.32-.208-.488-.7-.583l-.64-.113c-.759-.135-1.1-.456-1.1-1.023,0-.672.584-1.144,1.407-1.144a2.52,2.52,0,0,1,1.487.489l-.287.407a2.073,2.073,0,0,0-1.224-.416c-.512,0-.848.24-.848.624,0,.32.168.471.672.559l.656.12c.784.144,1.135.472,1.135,1.048a1.366,1.366,0,0,1-1.519,1.207,2.223,2.223,0,0,1-1.583-.576Z" />
    <path
       id="path384"
       d="M109.073,66.463a1.947,1.947,0,0,1-1.935-2.023,1.9,1.9,0,0,1,1.838-2.015,1.844,1.844,0,0,1,1.792,1.967v.176h-3.062a1.421,1.421,0,0,0,1.391,1.384,1.6,1.6,0,0,0,1.071-.4l.368.392A2.283,2.283,0,0,1,109.073,66.463Zm-1.352-2.31h2.471a1.289,1.289,0,0,0-1.223-1.224A1.3,1.3,0,0,0,107.721,64.153Z" />
    <path
       id="path386"
       d="M111.769,62.49h.584v.791a1.167,1.167,0,0,1,1.088-.864,1.112,1.112,0,0,1,.368.056V63a1.46,1.46,0,0,0-.408-.072,1.113,1.113,0,0,0-1.048.792v2.67h-.584Z" />
    <path
       id="path388"
       d="M114.226,62.49h.631l1.264,3.174,1.247-3.174h.624l-1.607,3.9h-.56Z" />
    <path
       id="path390"
       d="M120.352,66.463a1.948,1.948,0,0,1-1.935-2.023,1.9,1.9,0,0,1,1.839-2.015,1.843,1.843,0,0,1,1.791,1.967v.176h-3.062a1.422,1.422,0,0,0,1.391,1.384,1.6,1.6,0,0,0,1.072-.4l.367.392A2.279,2.279,0,0,1,120.352,66.463ZM119,64.153h2.471a1.289,1.289,0,0,0-1.224-1.224A1.3,1.3,0,0,0,119,64.153Z" />
    <path
       id="path392"
       d="M123.049,62.49h.584v.791a1.167,1.167,0,0,1,1.087-.864,1.108,1.108,0,0,1,.368.056V63a1.453,1.453,0,0,0-.407-.072,1.113,1.113,0,0,0-1.048.792v2.67h-.584Z" />
  </g>
  <g
     id="g442">
    <path
       id="path396"
       d="M53.914,84.74l.584-.12v3.686l1.855-1.751h.7L55.074,88.41l2.071,2.047h-.768L54.5,88.594v1.863h-.584Z" />
    <path
       id="path398"
       d="M58.274,88.906a1.008,1.008,0,0,0,1.04,1.127,1.158,1.158,0,0,0,1.023-.592V86.555h.584v3.9h-.584v-.632a1.4,1.4,0,0,1-1.239.7,1.364,1.364,0,0,1-1.415-1.447V86.555h.591Z" />
    <path
       id="path400"
       d="M63.93,90.513a1.581,1.581,0,0,1-1.232-.568v.512h-.576V84.74l.584-.12v2.47a1.575,1.575,0,0,1,1.255-.583,2.013,2.013,0,0,1-.031,4.006Zm-1.224-2.959v1.911a1.372,1.372,0,0,0,1.112.544,1.5,1.5,0,0,0,0-2.99A1.332,1.332,0,0,0,62.706,87.554Z" />
    <path
       id="path402"
       d="M68.554,90.529a1.948,1.948,0,0,1-1.935-2.024,1.9,1.9,0,0,1,1.838-2.014,1.843,1.843,0,0,1,1.791,1.967v.175H67.186a1.423,1.423,0,0,0,1.392,1.384,1.6,1.6,0,0,0,1.071-.4l.368.391A2.279,2.279,0,0,1,68.554,90.529ZM67.2,88.218h2.471A1.288,1.288,0,0,0,68.45,87,1.3,1.3,0,0,0,67.2,88.218Z" />
    <path
       id="path404"
       d="M73.817,87.955v.5H71.154v-.5Z" />
    <path
       id="path406"
       d="M77.856,89.538l.36.359a2.032,2.032,0,0,1-1.479.632,2.021,2.021,0,0,1,0-4.038,2.128,2.128,0,0,1,1.5.607l-.376.408a1.537,1.537,0,0,0-1.1-.487A1.5,1.5,0,0,0,76.769,90,1.439,1.439,0,0,0,77.856,89.538Z" />
    <path
       id="path408"
       d="M80.657,86.491a2.027,2.027,0,1,1-1.895,2.014A1.914,1.914,0,0,1,80.657,86.491Zm1.327,2.023a1.335,1.335,0,1,0-2.646,0,1.334,1.334,0,1,0,2.646,0Z" />
    <path
       id="path410"
       d="M83.586,86.555h.583v.632a1.407,1.407,0,0,1,1.24-.7,1.358,1.358,0,0,1,1.415,1.439v2.527h-.583V88.1a1.012,1.012,0,0,0-1.048-1.119,1.151,1.151,0,0,0-1.024.6v2.878h-.583Z" />
    <path
       id="path412"
       d="M88.346,87.035h-.808v-.48h.808V85.484l.583-.137v1.208h1.12v.48h-1.12v2.39c0,.416.16.584.568.584a1.4,1.4,0,0,0,.552-.1v.519a2.165,2.165,0,0,1-.68.1c-.672,0-1.023-.328-1.023-.951Z" />
    <path
       id="path414"
       d="M90.906,86.555h.584v.791a1.164,1.164,0,0,1,1.087-.863,1.108,1.108,0,0,1,.368.056v.528A1.46,1.46,0,0,0,92.537,87a1.111,1.111,0,0,0-1.047.792v2.67h-.584Z" />
    <path
       id="path416"
       d="M95.193,86.491A2.027,2.027,0,1,1,93.3,88.505,1.915,1.915,0,0,1,95.193,86.491Zm1.327,2.023a1.335,1.335,0,1,0-2.647,0,1.334,1.334,0,1,0,2.647,0Z" />
    <path
       id="path418"
       d="M98.706,90.457h-.584V84.74l.584-.12Z" />
    <path
       id="path420"
       d="M100.49,90.457h-.584V84.74l.584-.12Z" />
    <path
       id="path422"
       d="M103.449,90.529a1.948,1.948,0,0,1-1.935-2.024,1.9,1.9,0,0,1,1.838-2.014,1.843,1.843,0,0,1,1.791,1.967v.175h-3.062a1.423,1.423,0,0,0,1.392,1.384,1.6,1.6,0,0,0,1.071-.4l.368.391A2.279,2.279,0,0,1,103.449,90.529ZM102.1,88.218h2.471A1.288,1.288,0,0,0,103.345,87,1.3,1.3,0,0,0,102.1,88.218Z" />
    <path
       id="path424"
       d="M106.145,86.555h.584v.791a1.166,1.166,0,0,1,1.088-.863,1.112,1.112,0,0,1,.368.056v.528a1.46,1.46,0,0,0-.408-.072,1.113,1.113,0,0,0-1.048.792v2.67h-.584Z" />
    <path
       id="path426"
       d="M111.352,87.955v.5h-2.663v-.5Z" />
    <path
       id="path428"
       d="M112.441,86.555h.584v.608a1.335,1.335,0,0,1,1.16-.672,1.283,1.283,0,0,1,1.2.759,1.442,1.442,0,0,1,1.3-.759,1.327,1.327,0,0,1,1.327,1.447v2.519h-.583V88.083c0-.68-.368-1.1-.96-1.1a1.084,1.084,0,0,0-.975.615,1.625,1.625,0,0,1,.032.344v2.519h-.584V88.083a.97.97,0,0,0-.968-1.1,1.069,1.069,0,0,0-.951.575v2.9h-.584Z" />
    <path
       id="path430"
       d="M118.993,89.337c0-.7.584-1.159,1.463-1.159a2.26,2.26,0,0,1,1.192.3v-.536a.878.878,0,0,0-1.007-.967,2.578,2.578,0,0,0-1.184.336l-.216-.448a3.344,3.344,0,0,1,1.471-.376c.968,0,1.512.488,1.512,1.375v2.591h-.576V90a1.675,1.675,0,0,1-1.239.528A1.26,1.26,0,0,1,118.993,89.337Zm1.535.744a1.545,1.545,0,0,0,1.12-.448v-.752a2.069,2.069,0,0,0-1.1-.279c-.6,0-.991.287-.991.72C119.553,89.777,119.945,90.081,120.528,90.081Z" />
    <path
       id="path432"
       d="M123.409,86.555h.584v.632a1.405,1.405,0,0,1,1.239-.7,1.358,1.358,0,0,1,1.415,1.439v2.527h-.583V88.1a1.012,1.012,0,0,0-1.048-1.119,1.149,1.149,0,0,0-1.023.6v2.878h-.584Z" />
    <path
       id="path434"
       d="M127.617,89.337c0-.7.584-1.159,1.464-1.159a2.259,2.259,0,0,1,1.191.3v-.536a.878.878,0,0,0-1.007-.967,2.578,2.578,0,0,0-1.184.336l-.216-.448a3.344,3.344,0,0,1,1.471-.376c.968,0,1.512.488,1.512,1.375v2.591h-.576V90a1.675,1.675,0,0,1-1.239.528A1.26,1.26,0,0,1,127.617,89.337Zm1.535.744a1.545,1.545,0,0,0,1.12-.448v-.752a2.069,2.069,0,0,0-1.1-.279c-.6,0-.991.287-.991.72C128.177,89.777,128.569,90.081,129.152,90.081Z" />
    <path
       id="path436"
       d="M131.857,88.505a1.9,1.9,0,0,1,1.831-2,1.573,1.573,0,0,1,1.223.552v-.5h.576v4.1c0,.967-.584,1.5-1.647,1.5a3.124,3.124,0,0,1-1.519-.408l.247-.448a2.627,2.627,0,0,0,1.248.361c.711,0,1.087-.345,1.087-1v-.736a1.537,1.537,0,0,1-1.247.575A1.883,1.883,0,0,1,131.857,88.505ZM133.8,90a1.343,1.343,0,0,0,1.1-.528V87.546A1.443,1.443,0,1,0,133.8,90Z" />
    <path
       id="path438"
       d="M138.448,90.529a1.948,1.948,0,0,1-1.935-2.024,1.9,1.9,0,0,1,1.839-2.014,1.843,1.843,0,0,1,1.791,1.967v.175h-3.062a1.422,1.422,0,0,0,1.391,1.384,1.6,1.6,0,0,0,1.071-.4l.368.391A2.277,2.277,0,0,1,138.448,90.529ZM137.1,88.218h2.47A1.287,1.287,0,0,0,138.344,87,1.3,1.3,0,0,0,137.1,88.218Z" />
    <path
       id="path440"
       d="M141.145,86.555h.584v.791a1.165,1.165,0,0,1,1.087-.863,1.108,1.108,0,0,1,.368.056v.528a1.46,1.46,0,0,0-.408-.072,1.112,1.112,0,0,0-1.047.792v2.67h-.584Z" />
  </g>
  <g
     id="g472">
    <path
       id="path444"
       d="M71.074,108.769l.584-.12v3.685l1.855-1.751h.7l-1.982,1.856,2.071,2.047h-.768l-1.879-1.863v1.863h-.584Z" />
    <path
       id="path446"
       d="M75.434,112.934a1.008,1.008,0,0,0,1.039,1.128,1.159,1.159,0,0,0,1.024-.592v-2.887h.584v3.9H77.5v-.632a1.4,1.4,0,0,1-1.24.7,1.364,1.364,0,0,1-1.415-1.447v-2.519h.592Z" />
    <path
       id="path448"
       d="M81.089,114.541a1.581,1.581,0,0,1-1.231-.567v.512h-.576v-5.717l.584-.12v2.471a1.568,1.568,0,0,1,1.255-.584,2.012,2.012,0,0,1-.032,4Zm-1.223-2.958v1.911a1.372,1.372,0,0,0,1.111.544,1.5,1.5,0,0,0,0-2.991A1.335,1.335,0,0,0,79.866,111.583Z" />
    <path
       id="path450"
       d="M85.713,114.557a1.947,1.947,0,0,1-1.935-2.022,1.9,1.9,0,0,1,1.839-2.015,1.843,1.843,0,0,1,1.791,1.967v.176H84.346a1.421,1.421,0,0,0,1.391,1.382,1.6,1.6,0,0,0,1.072-.4l.367.392A2.281,2.281,0,0,1,85.713,114.557Zm-1.351-2.31h2.47a1.287,1.287,0,0,0-1.223-1.223A1.3,1.3,0,0,0,84.362,112.247Z" />
    <path
       id="path452"
       d="M90.976,111.983v.5H88.314v-.5Z" />
    <path
       id="path454"
       d="M92,113.6a2.032,2.032,0,0,0,1.255.487c.568,0,.984-.295.984-.7,0-.32-.208-.488-.7-.584l-.64-.111c-.759-.137-1.1-.456-1.1-1.023,0-.672.584-1.144,1.407-1.144a2.518,2.518,0,0,1,1.487.487l-.287.409A2.065,2.065,0,0,0,93.177,111c-.512,0-.847.241-.847.625,0,.319.167.471.671.559l.656.12c.784.144,1.135.472,1.135,1.047a1.365,1.365,0,0,1-1.519,1.207,2.224,2.224,0,0,1-1.583-.575Z" />
    <path
       id="path456"
       d="M98.592,113.566l.36.36a2.029,2.029,0,0,1-1.479.631,2.021,2.021,0,0,1,0-4.037,2.132,2.132,0,0,1,1.5.607l-.376.409a1.529,1.529,0,0,0-1.1-.489,1.5,1.5,0,0,0,.008,2.983A1.436,1.436,0,0,0,98.592,113.566Z" />
    <path
       id="path458"
       d="M99.793,108.769l.584-.12v2.566a1.406,1.406,0,0,1,1.24-.7,1.357,1.357,0,0,1,1.415,1.438v2.528h-.584v-2.36a1.011,1.011,0,0,0-1.047-1.119,1.151,1.151,0,0,0-1.024.6v2.879h-.584Z" />
    <path
       id="path460"
       d="M105.969,114.557a1.947,1.947,0,0,1-1.935-2.022,1.9,1.9,0,0,1,1.838-2.015,1.844,1.844,0,0,1,1.792,1.967v.176H104.6a1.421,1.421,0,0,0,1.392,1.382,1.594,1.594,0,0,0,1.071-.4l.368.392A2.283,2.283,0,0,1,105.969,114.557Zm-1.352-2.31h2.471a1.288,1.288,0,0,0-1.223-1.223A1.3,1.3,0,0,0,104.617,112.247Z" />
    <path
       id="path462"
       d="M111.544,113.966a1.541,1.541,0,0,1-1.248.575,2.012,2.012,0,0,1,.033-4,1.59,1.59,0,0,1,1.215.544v-2.311l.583-.12v5.837h-.583Zm-1.1.064a1.337,1.337,0,0,0,1.1-.52v-1.935a1.444,1.444,0,1,0-1.1,2.455Z" />
    <path
       id="path464"
       d="M113.9,112.934a1.008,1.008,0,0,0,1.039,1.128,1.156,1.156,0,0,0,1.023-.592v-2.887h.584v3.9h-.584v-.632a1.394,1.394,0,0,1-1.239.7,1.364,1.364,0,0,1-1.415-1.447v-2.519h.592Z" />
    <path
       id="path466"
       d="M118.329,114.486h-.584v-5.717l.584-.12Z" />
    <path
       id="path468"
       d="M121.288,114.557a1.947,1.947,0,0,1-1.935-2.022,1.9,1.9,0,0,1,1.839-2.015,1.844,1.844,0,0,1,1.791,1.967v.176H119.92a1.421,1.421,0,0,0,1.392,1.382,1.59,1.59,0,0,0,1.071-.4l.368.392A2.283,2.283,0,0,1,121.288,114.557Zm-1.352-2.31h2.471a1.287,1.287,0,0,0-1.223-1.223A1.3,1.3,0,0,0,119.936,112.247Z" />
    <path
       id="path470"
       d="M123.985,110.583h.584v.792a1.164,1.164,0,0,1,1.087-.863,1.108,1.108,0,0,1,.368.056v.527a1.458,1.458,0,0,0-.408-.071,1.11,1.11,0,0,0-1.047.791v2.671h-.584Z" />
  </g>
  <g
     id="g482">
    <path
       id="path474"
       d="M92.761,138.586a1.947,1.947,0,0,1-1.935-2.023,1.9,1.9,0,0,1,1.838-2.015,1.844,1.844,0,0,1,1.792,1.967v.176H91.393a1.423,1.423,0,0,0,1.392,1.384,1.6,1.6,0,0,0,1.071-.4l.368.392A2.283,2.283,0,0,1,92.761,138.586Zm-1.352-2.31H93.88a1.289,1.289,0,0,0-1.223-1.224A1.3,1.3,0,0,0,91.409,136.276Z" />
    <path
       id="path476"
       d="M95.8,135.092h-.807v-.479H95.8v-1.072l.584-.136v1.208H97.5v.479H96.385v2.391c0,.416.16.584.568.584a1.4,1.4,0,0,0,.551-.105v.52a2.187,2.187,0,0,1-.679.1c-.672,0-1.024-.328-1.024-.951Z" />
    <path
       id="path478"
       d="M101.136,137.6l.36.36a2.033,2.033,0,0,1-1.48.631,2.021,2.021,0,0,1,0-4.038,2.125,2.125,0,0,1,1.5.608l-.376.408a1.529,1.529,0,0,0-1.1-.487,1.5,1.5,0,0,0,.008,2.982A1.438,1.438,0,0,0,101.136,137.6Z" />
    <path
       id="path480"
       d="M105.088,138a1.538,1.538,0,0,1-1.248.576,2.013,2.013,0,0,1,.032-4.006,1.589,1.589,0,0,1,1.216.543V132.8l.583-.12v5.837h-.583Zm-1.1.064a1.34,1.34,0,0,0,1.1-.52V135.6a1.444,1.444,0,1,0-1.1,2.455Z" />
  </g>
  <g
     id="g498">
    <path
       id="path484"
       d="M85.7,156.826l.584-.12v3.686l1.854-1.751h.7L86.857,160.5l2.071,2.046h-.767l-1.879-1.863v1.863H85.7Z" />
    <path
       id="path486"
       d="M90.058,160.992a1.008,1.008,0,0,0,1.039,1.127,1.159,1.159,0,0,0,1.024-.592v-2.886H92.7v3.9h-.583v-.631a1.4,1.4,0,0,1-1.24.695,1.363,1.363,0,0,1-1.415-1.446v-2.519h.592Z" />
    <path
       id="path488"
       d="M95.713,162.6a1.58,1.58,0,0,1-1.232-.567v.511h-.575v-5.716l.584-.12v2.47a1.57,1.57,0,0,1,1.255-.584,2.013,2.013,0,0,1-.032,4.006ZM94.49,159.64v1.911a1.369,1.369,0,0,0,1.111.543,1.5,1.5,0,0,0,0-2.99A1.33,1.33,0,0,0,94.49,159.64Z" />
    <path
       id="path490"
       d="M100.337,162.615a1.948,1.948,0,0,1-1.935-2.024,1.9,1.9,0,0,1,1.839-2.014,1.843,1.843,0,0,1,1.791,1.966v.176H98.969a1.423,1.423,0,0,0,1.392,1.384,1.6,1.6,0,0,0,1.071-.4l.368.391A2.274,2.274,0,0,1,100.337,162.615ZM98.985,160.3h2.471a1.288,1.288,0,0,0-1.223-1.222A1.3,1.3,0,0,0,98.985,160.3Z" />
    <path
       id="path492"
       d="M103.618,162.542h-.584v-5.716l.584-.12Z" />
    <path
       id="path494"
       d="M106.577,162.615a1.948,1.948,0,0,1-1.935-2.024,1.9,1.9,0,0,1,1.838-2.014,1.842,1.842,0,0,1,1.791,1.966v.176h-3.062A1.423,1.423,0,0,0,106.6,162.1a1.6,1.6,0,0,0,1.071-.4l.367.391A2.269,2.269,0,0,1,106.577,162.615Zm-1.352-2.312H107.7a1.288,1.288,0,0,0-1.223-1.222A1.3,1.3,0,0,0,105.225,160.3Z" />
    <path
       id="path496"
       d="M109.617,159.121h-.807v-.48h.807v-1.072l.584-.136v1.208h1.119v.48H110.2v2.39c0,.416.16.583.567.583a1.4,1.4,0,0,0,.552-.1v.519a2.163,2.163,0,0,1-.679.105c-.672,0-1.024-.328-1.024-.952Z" />
  </g>
  <g
     id="g510">
    <path
       id="path500"
       d="M93.288,185.651l.36.36a2.03,2.03,0,0,1-1.48.632,2.021,2.021,0,0,1,0-4.038,2.133,2.133,0,0,1,1.5.607l-.376.409a1.535,1.535,0,0,0-1.1-.489,1.5,1.5,0,0,0,.009,2.983A1.434,1.434,0,0,0,93.288,185.651Z" />
    <path
       id="path502"
       d="M94.489,182.668h.584v.792a1.164,1.164,0,0,1,1.088-.863,1.106,1.106,0,0,1,.367.056v.527a1.494,1.494,0,0,0-.407-.071,1.113,1.113,0,0,0-1.048.791v2.671h-.584Z" />
    <path
       id="path504"
       d="M97.177,181.286a.42.42,0,0,1,.84,0,.42.42,0,1,1-.84,0Zm.712,5.285h-.584v-3.9h.584Z" />
    <path
       id="path506"
       d="M101.64,184.068v.5H98.977v-.5Z" />
    <path
       id="path508"
       d="M104.528,182.605a2.027,2.027,0,1,1-1.9,2.015A1.915,1.915,0,0,1,104.528,182.605Zm1.327,2.022a1.335,1.335,0,1,0-2.646,0,1.334,1.334,0,1,0,2.646,0Z" />
  </g>
  <g
     id="g526">
    <path
       id="path512"
       d="M44.363,224.372a1.788,1.788,0,0,0,1.1.426c.5,0,.861-.258.861-.616,0-.28-.182-.427-.616-.511l-.56-.1c-.666-.119-.967-.4-.967-.9,0-.588.511-1,1.233-1a2.214,2.214,0,0,1,1.3.427l-.253.357a1.819,1.819,0,0,0-1.071-.364c-.448,0-.743.21-.743.546,0,.28.147.414.589.49l.574.106c.686.126.995.413.995.918a1.2,1.2,0,0,1-1.331,1.057,1.948,1.948,0,0,1-1.387-.5Z" />
    <path
       id="path514"
       d="M48.41,225.142l-1.317-3.411h.568L48.7,224.54l1.1-2.809h.567l-1.7,4.118c-.217.554-.476.757-.981.757a1.215,1.215,0,0,1-.329-.049V226.1a1.193,1.193,0,0,0,.281.028c.259,0,.42-.126.546-.434Z" />
    <path
       id="path516"
       d="M50.943,224.372a1.79,1.79,0,0,0,1.1.426c.5,0,.861-.258.861-.616,0-.28-.182-.427-.616-.511l-.56-.1c-.666-.119-.967-.4-.967-.9,0-.588.511-1,1.233-1a2.214,2.214,0,0,1,1.3.427l-.253.357a1.819,1.819,0,0,0-1.071-.364c-.448,0-.743.21-.743.546,0,.28.147.414.589.49l.574.106c.687.126.995.413.995.918a1.2,1.2,0,0,1-1.331,1.057,1.95,1.95,0,0,1-1.387-.5Z" />
    <path
       id="path518"
       d="M54.5,222.151h-.707v-.42H54.5v-.939l.512-.119v1.058h.98v.42h-.98v2.095c0,.364.14.51.5.51a1.225,1.225,0,0,0,.483-.09v.455a1.919,1.919,0,0,1-.595.091c-.588,0-.9-.288-.9-.834Z" />
    <path
       id="path520"
       d="M58.2,225.212a1.705,1.705,0,0,1-1.7-1.772,1.664,1.664,0,0,1,1.611-1.765,1.615,1.615,0,0,1,1.569,1.723v.154H57a1.245,1.245,0,0,0,1.219,1.212,1.405,1.405,0,0,0,.939-.35l.321.342A1.99,1.99,0,0,1,58.2,225.212Zm-1.184-2.024h2.165a1.129,1.129,0,0,0-1.072-1.071A1.141,1.141,0,0,0,57.012,223.188Z" />
    <path
       id="path522"
       d="M60.554,221.731h.511v.532a1.175,1.175,0,0,1,1.016-.588,1.123,1.123,0,0,1,1.05.665,1.264,1.264,0,0,1,1.142-.665,1.163,1.163,0,0,1,1.162,1.268v2.206h-.511v-2.08c0-.6-.322-.967-.84-.967a.954.954,0,0,0-.855.539,1.426,1.426,0,0,1,.028.3v2.206h-.511v-2.08a.849.849,0,0,0-.847-.967.937.937,0,0,0-.834.5v2.542h-.511Z" />
    <path
       id="path524"
       d="M68.983,224.694a1.346,1.346,0,0,1-1.092.5,1.763,1.763,0,0,1,.028-3.509,1.389,1.389,0,0,1,1.064.477v-2.025l.512-.1v5.112h-.512Zm-.966.055a1.169,1.169,0,0,0,.966-.455v-1.7a1.264,1.264,0,1,0-.966,2.15Z" />
  </g>
  <g
     id="g532">
    <rect
       id="rect528"
       height="8.413"
       width="16.554"
       y="218.82"
       x="20.251"
       class="cls-2" />
    <path
       id="path530"
       d="M36.305,219.32v7.413H20.751V219.32H36.305m1-1H19.751v9.413H37.305V218.32Z"
       class="cls-6" />
  </g>
  <g
     id="g552">
    <path
       id="path534"
       d="M109.7,224.372a1.786,1.786,0,0,0,1.1.426c.5,0,.862-.258.862-.616,0-.28-.183-.427-.617-.511l-.56-.1c-.665-.119-.967-.4-.967-.9,0-.588.512-1,1.233-1a2.209,2.209,0,0,1,1.3.427l-.252.357a1.822,1.822,0,0,0-1.072-.364c-.448,0-.742.21-.742.546,0,.28.147.414.588.49l.574.106c.687.126,1,.413,1,.918a1.2,1.2,0,0,1-1.331,1.057,1.948,1.948,0,0,1-1.386-.5Z" />
    <path
       id="path536"
       d="M113.258,222.151h-.707v-.42h.707v-.939l.511-.119v1.058h.981v.42h-.981v2.095c0,.364.141.51.5.51a1.225,1.225,0,0,0,.483-.09v.455a1.919,1.919,0,0,1-.595.091c-.589,0-.9-.288-.9-.834Z" />
    <path
       id="path538"
       d="M115.315,224.168c0-.609.512-1.015,1.282-1.015a1.984,1.984,0,0,1,1.044.266v-.469a.77.77,0,0,0-.883-.848,2.256,2.256,0,0,0-1.036.294l-.189-.392a2.927,2.927,0,0,1,1.288-.329c.847,0,1.324.427,1.324,1.2v2.27h-.5v-.4a1.468,1.468,0,0,1-1.086.463A1.1,1.1,0,0,1,115.315,224.168Zm1.345.652a1.353,1.353,0,0,0,.981-.393v-.658a1.809,1.809,0,0,0-.967-.245c-.525,0-.868.252-.868.631C115.806,224.553,116.149,224.82,116.66,224.82Z" />
    <path
       id="path540"
       d="M119.481,222.151h-.708v-.42h.708v-.939l.511-.119v1.058h.981v.42h-.981v2.095c0,.364.14.51.5.51a1.23,1.23,0,0,0,.484-.09v.455a1.925,1.925,0,0,1-.6.091c-.588,0-.9-.288-.9-.834Z" />
    <path
       id="path542"
       d="M121.608,220.519a.368.368,0,0,1,.736,0,.368.368,0,1,1-.736,0Zm.624,4.63h-.511v-3.418h.511Z" />
    <path
       id="path544"
       d="M125.8,224.343l.315.316a1.779,1.779,0,0,1-1.3.553,1.77,1.77,0,0,1,0-3.537,1.865,1.865,0,0,1,1.317.533l-.329.357a1.34,1.34,0,0,0-.967-.428,1.311,1.311,0,0,0,.007,2.612A1.255,1.255,0,0,0,125.8,224.343Z" />
    <path
       id="path546"
       d="M128.476,221.731h.5v.49a1.348,1.348,0,0,1,1.106-.532,1.763,1.763,0,0,1-.028,3.509,1.385,1.385,0,0,1-1.071-.476v1.891h-.511Zm.511.876v1.674a1.2,1.2,0,0,0,.973.475,1.315,1.315,0,0,0,0-2.619A1.165,1.165,0,0,0,128.987,222.607Z" />
    <path
       id="path548"
       d="M134.069,221.675a1.776,1.776,0,1,1-1.66,1.765A1.678,1.678,0,0,1,134.069,221.675Zm1.163,1.772a1.169,1.169,0,1,0-2.318,0,1.168,1.168,0,1,0,2.318,0Z" />
    <path
       id="path550"
       d="M139.151,224.694a1.346,1.346,0,0,1-1.092.5,1.763,1.763,0,0,1,.028-3.509,1.389,1.389,0,0,1,1.064.477v-2.025l.512-.1v5.112h-.512Zm-.966.055a1.169,1.169,0,0,0,.966-.455v-1.7a1.264,1.264,0,1,0-.966,2.15Z" />
  </g>
  <g
     id="g558">
    <rect
       id="rect554"
       height="8.413"
       width="16.554"
       y="218.82"
       x="85.589"
       class="cls-2" />
    <path
       id="path556"
       d="M101.643,219.32v7.413H86.089V219.32h15.554m1-1H85.089v9.413h17.554V218.32Z"
       class="cls-5" />
  </g>
  <g
     id="g580">
    <path
       id="path560"
       d="M180.813,221.731h.511v.693a1.021,1.021,0,0,1,.953-.756.974.974,0,0,1,.322.049v.462a1.282,1.282,0,0,0-.357-.062.974.974,0,0,0-.918.693v2.339h-.511Z" />
    <path
       id="path562"
       d="M184.6,225.212a1.705,1.705,0,0,1-1.695-1.772,1.663,1.663,0,0,1,1.611-1.765,1.614,1.614,0,0,1,1.568,1.723v.154H183.4a1.245,1.245,0,0,0,1.219,1.212,1.4,1.4,0,0,0,.938-.35l.322.342A1.99,1.99,0,0,1,184.6,225.212Zm-1.184-2.024h2.164a1.128,1.128,0,0,0-1.071-1.071A1.14,1.14,0,0,0,183.417,223.188Z" />
    <path
       id="path564"
       d="M186.811,223.44a1.663,1.663,0,0,1,1.6-1.751,1.379,1.379,0,0,1,1.072.483v-.441h.5v3.593c0,.847-.511,1.317-1.443,1.317a2.751,2.751,0,0,1-1.33-.357l.217-.393a2.288,2.288,0,0,0,1.092.316c.624,0,.953-.3.953-.876v-.644a1.346,1.346,0,0,1-1.092.5A1.65,1.65,0,0,1,186.811,223.44Zm1.7,1.309a1.175,1.175,0,0,0,.966-.461V222.6a1.264,1.264,0,1,0-.966,2.15Z" />
    <path
       id="path566"
       d="M191.537,223.791a.883.883,0,0,0,.91.987,1.017,1.017,0,0,0,.9-.519v-2.528h.511v3.418h-.511V224.6a1.227,1.227,0,0,1-1.086.61,1.2,1.2,0,0,1-1.24-1.268v-2.206h.519Z" />
    <path
       id="path568"
       d="M195.415,225.149H194.9v-5.008l.511-.1Z" />
    <path
       id="path570"
       d="M196.283,224.168c0-.609.511-1.015,1.281-1.015a1.981,1.981,0,0,1,1.044.266v-.469a.769.769,0,0,0-.882-.848,2.256,2.256,0,0,0-1.037.294L196.5,222a2.935,2.935,0,0,1,1.29-.329c.847,0,1.323.427,1.323,1.2v2.27h-.5v-.4a1.466,1.466,0,0,1-1.086.463A1.1,1.1,0,0,1,196.283,224.168Zm1.344.652a1.35,1.35,0,0,0,.981-.393v-.658a1.806,1.806,0,0,0-.966-.245c-.526,0-.869.252-.869.631C196.773,224.553,197.116,224.82,197.627,224.82Z" />
    <path
       id="path572"
       d="M200.146,221.731h.512v.693a1.02,1.02,0,0,1,.952-.756.97.97,0,0,1,.322.049v.462a1.275,1.275,0,0,0-.357-.062.973.973,0,0,0-.917.693v2.339h-.512Z" />
    <path
       id="path574"
       d="M204.241,221.731h.5v.49a1.346,1.346,0,0,1,1.106-.532,1.763,1.763,0,0,1-.028,3.509,1.387,1.387,0,0,1-1.072-.476v1.891h-.511Zm.511.876v1.674a1.2,1.2,0,0,0,.974.475,1.315,1.315,0,0,0,0-2.619A1.168,1.168,0,0,0,204.752,222.607Z" />
    <path
       id="path576"
       d="M209.835,221.675a1.776,1.776,0,1,1-1.66,1.765A1.677,1.677,0,0,1,209.835,221.675ZM211,223.447a1.169,1.169,0,1,0-2.318,0,1.168,1.168,0,1,0,2.318,0Z" />
    <path
       id="path578"
       d="M214.917,224.694a1.346,1.346,0,0,1-1.092.5,1.763,1.763,0,0,1,.028-3.509,1.389,1.389,0,0,1,1.064.477v-2.025l.512-.1v5.112h-.512Zm-.966.055a1.169,1.169,0,0,0,.966-.455v-1.7a1.264,1.264,0,1,0-.966,2.15Z" />
  </g>
  <g
     id="g586">
    <rect
       id="rect582"
       height="8.413"
       width="16.554"
       y="218.82"
       x="156.644"
       class="cls-2" />
    <path
       id="path584"
       d="M172.7,219.32v7.413H157.144V219.32H172.7m1-1H156.144v9.413H173.7V218.32Z"
       class="cls-3" />
  </g>
</svg>
